<svg width="75" height="101" viewBox="0 0 75 101" fill="none" xmlns="http://www.w3.org/2000/svg">
<g clip-path="url(#clip0_9_5993)">
<path d="M74.3444 4.63978V96.049C74.3444 98.5714 72.3064 100.609 69.784 100.609H5.45338C2.93094 100.593 0.892944 98.5547 0.892944 96.049V4.63978C0.892944 2.11734 2.93094 0.0793457 5.45338 0.0793457H69.8007C72.3064 0.0793457 74.3444 2.11734 74.3444 4.63978Z" fill="#0AC5A8"/>
<path d="M69.6652 8.48717V92.1849C69.6652 94.4945 67.8744 96.3606 65.658 96.3606H9.13216C6.91574 96.3453 5.125 94.4792 5.125 92.1849V8.48717C5.125 6.17753 6.91574 4.31146 9.13216 4.31146H65.6727C67.8744 4.31146 69.6652 6.17753 69.6652 8.48717Z" fill="url(#paint0_linear_9_5993)"/>
<path d="M29.3243 19.3902V23.5497C29.3243 23.8504 29.0905 24.0842 28.7898 24.0842H23.6948C23.3941 24.0842 23.1602 24.3181 23.1602 24.6188V29.7138C23.1602 30.0145 22.9264 30.2484 22.6257 30.2484H18.4661C18.1655 30.2484 17.9316 30.0145 17.9316 29.7138V24.6188C17.9316 24.3181 17.6977 24.0842 17.397 24.0842H12.3187C12.018 24.0842 11.7842 23.8504 11.7842 23.5497V19.3902C11.7842 19.0895 12.018 18.8556 12.3187 18.8556H17.4137C17.7144 18.8556 17.9483 18.6217 17.9483 18.3211V13.2261C17.9483 12.9254 18.1822 12.6915 18.4828 12.6915H22.6424C22.9431 12.6915 23.1769 12.9254 23.1769 13.2261V18.3211C23.1769 18.6217 23.4108 18.8556 23.7115 18.8556H28.7898C29.0905 18.8556 29.3243 19.0895 29.3243 19.3902Z" fill="#0AC5A8"/>
<path opacity="0.5" d="M62.868 42.0587H12.3691C12.035 42.0587 11.7677 41.7914 11.7677 41.4573V39.5363C11.7677 39.2022 12.035 38.9349 12.3691 38.9349H62.868C63.2021 38.9349 63.4694 39.2022 63.4694 39.5363V41.4573C63.4527 41.7914 63.2021 42.0587 62.868 42.0587Z" fill="#0AC5A8"/>
<path d="M62.868 18.1206H37.8106C37.4765 18.1206 37.2092 17.8533 37.2092 17.5192V15.6148C37.2092 15.2807 37.4765 15.0135 37.8106 15.0135H62.868C63.2021 15.0135 63.4693 15.2807 63.4693 15.6148V17.5359C63.4526 17.8533 63.2021 18.1206 62.868 18.1206Z" fill="#0AC5A8"/>
<path opacity="0.5" d="M55.451 26.2392H37.8106C37.4765 26.2392 37.2092 25.9719 37.2092 25.6378V23.7167C37.2092 23.3826 37.4765 23.1154 37.8106 23.1154H55.451C55.7851 23.1154 56.0524 23.3826 56.0524 23.7167V25.6378C56.0357 25.9719 55.7851 26.2392 55.451 26.2392Z" fill="#0AC5A8"/>
<path opacity="0.5" d="M62.868 51.1796H12.3691C12.035 51.1796 11.7677 50.9123 11.7677 50.5782V48.6572C11.7677 48.3231 12.035 48.0558 12.3691 48.0558H62.868C63.2021 48.0558 63.4694 48.3231 63.4694 48.6572V50.5782C63.4527 50.9123 63.2021 51.1796 62.868 51.1796Z" fill="#0AC5A8"/>
<path opacity="0.5" d="M62.868 60.3005H12.3691C12.035 60.3005 11.7677 60.0332 11.7677 59.6991V57.778C11.7677 57.4439 12.035 57.1767 12.3691 57.1767H62.868C63.2021 57.1767 63.4694 57.4439 63.4694 57.778V59.7158C63.4527 60.0332 63.2021 60.3005 62.868 60.3005Z" fill="#0AC5A8"/>
<path opacity="0.5" d="M62.868 69.438H12.3691C12.035 69.438 11.7677 69.1708 11.7677 68.8367V66.9156C11.7677 66.5815 12.035 66.3142 12.3691 66.3142H62.868C63.2021 66.3142 63.4694 66.5815 63.4694 66.9156V68.8367C63.4527 69.1708 63.2021 69.438 62.868 69.438Z" fill="#0AC5A8"/>
<path opacity="0.5" d="M62.868 78.559H12.3691C12.035 78.559 11.7677 78.2917 11.7677 77.9576V76.0365C11.7677 75.7024 12.035 75.4351 12.3691 75.4351H62.868C63.2021 75.4351 63.4694 75.7024 63.4694 76.0365V77.9576C63.4527 78.2917 63.2021 78.559 62.868 78.559Z" fill="#0AC5A8"/>
<path opacity="0.5" d="M62.868 87.6798H12.3691C12.035 87.6798 11.7677 87.4125 11.7677 87.0784V85.1574C11.7677 84.8233 12.035 84.556 12.3691 84.556H62.868C63.2021 84.556 63.4694 84.8233 63.4694 85.1574V87.0784C63.4527 87.4125 63.2021 87.6798 62.868 87.6798Z" fill="#0AC5A8"/>
<path opacity="0.1" d="M74.3444 4.63978V96.049C74.3444 98.5714 72.3064 100.609 69.784 100.609H5.45338C2.93094 100.593 0.892944 98.5547 0.892944 96.049V94.462C40.1328 78.2583 58.4079 16.1161 62.534 0.0793457H69.784C72.3064 0.0793457 74.3444 2.11734 74.3444 4.63978Z" fill="#0AC5A8"/>
</g>
<defs>
<linearGradient id="paint0_linear_9_5993" x1="10.0175" y1="7.53385" x2="62.1938" y2="82.6392" gradientUnits="userSpaceOnUse">
<stop offset="0.3061" stop-color="white"/>
<stop offset="1" stop-color="white"/>
</linearGradient>
<clipPath id="clip0_9_5993">
<rect width="73.4515" height="100.513" fill="white" transform="translate(0.892944 0.0793457)"/>
</clipPath>
</defs>
</svg>
