<svg width="98" height="96" viewBox="0 0 98 96" fill="none" xmlns="http://www.w3.org/2000/svg">
<g clip-path="url(#clip0_9_5926)">
<path d="M59.6253 46.3324L50.0207 55.5003L9.46155 94.2095C8.39676 95.2282 7.0308 95.7375 5.66485 95.7375C4.16983 95.7375 2.67481 95.1306 1.58851 93.9277C-0.551845 91.5653 -0.272201 87.87 2.19082 85.8543L50.0207 46.8742L55.2909 42.5828L59.6253 46.3324Z" fill="#0AC5A8"/>
<path d="M49.6013 55.9663L40.1472 64.9825L39.276 55.7171L44.4494 51.5015L49.6013 55.9663Z" fill="#0AC5A8"/>
<path d="M97.4633 32.147C97.4633 49.6268 83.3951 63.8013 66.0571 63.8013C55.1295 63.8013 45.5033 58.177 39.8782 49.6376C36.5762 44.631 34.651 38.6165 34.651 32.147C34.651 14.6672 48.7192 0.503418 66.0571 0.503418C73.8872 0.503418 81.0396 3.38601 86.5357 8.15422C93.2256 13.9628 97.4633 22.5564 97.4633 32.147Z" fill="#0AC5A8"/>
<path d="M66.0572 56.8007C79.571 56.8007 90.526 45.7629 90.526 32.147C90.526 18.531 79.571 7.49316 66.0572 7.49316C52.5434 7.49316 41.5884 18.531 41.5884 32.147C41.5884 45.7629 52.5434 56.8007 66.0572 56.8007Z" fill="#FEFEFE"/>
<path opacity="0.06" d="M97.4634 32.147C97.4634 49.6268 83.3952 63.8014 66.0573 63.8014C55.1296 63.8014 45.5034 58.177 39.8783 49.6376C75.2962 46.7333 84.632 16.4986 86.5465 8.15424C93.2257 13.9628 97.4634 22.5564 97.4634 32.147Z" fill="#0AC5A8"/>
<path d="M66.0572 32.2011C68.8966 32.2011 71.1983 29.8821 71.1983 27.0211C71.1983 24.1602 68.8966 21.8411 66.0572 21.8411C63.2177 21.8411 60.916 24.1602 60.916 27.0211C60.916 29.8821 63.207 32.2011 66.0572 32.2011ZM66.0572 34.7911C62.6262 34.7911 55.7749 36.525 55.7749 39.9711V41.2716C55.7749 41.9868 56.3557 42.572 57.0656 42.572H75.0703C75.7802 42.572 76.361 41.9868 76.361 41.2716V39.9711C76.3395 36.5359 69.4882 34.7911 66.0572 34.7911Z" fill="#0AC5A8"/>
</g>
<defs>
<clipPath id="clip0_9_5926">
<rect width="97.316" height="95.2232" fill="white" transform="translate(0.147339 0.503418)"/>
</clipPath>
</defs>
</svg>
