<svg width="86" height="76" viewBox="0 0 86 76" fill="none" xmlns="http://www.w3.org/2000/svg">
<g clip-path="url(#clip0_9_6017)">
<path d="M70.9406 15.3094H14.635V75.7409H70.9406V15.3094Z" fill="#0AC5A8"/>
<path d="M14.402 15.3095C14.4699 15.3095 14.5379 15.3386 14.635 15.3677C14.635 35.4727 14.635 55.5777 14.635 75.7118C10.2762 76.0516 6.59687 74.9546 3.6748 72.1393C1.60703 70.1395 0.60712 67.7902 0.60712 65.1302C0.60712 55.7136 0.60712 46.3067 0.60712 36.8901C0.60712 33.2981 0.597412 29.7062 0.597412 26.1143C0.597412 21.7749 2.93701 18.6199 7.23759 16.4841C9.45098 15.3969 11.9071 15.2318 14.402 15.3095Z" fill="#0AC5A8"/>
<path d="M61.1066 15.2998C63.6209 15.2998 63.8733 15.2998 66.378 15.2998C66.378 35.4727 66.378 55.5777 66.378 75.7215C49.2824 75.7215 36.3515 75.7215 19.1978 75.7215C19.1978 55.5874 19.1978 35.4824 19.1978 15.3192C21.7024 15.3192 22.246 15.3192 24.7992 15.3192C24.7992 15.0668 24.7992 14.8726 24.7992 14.6882C24.7992 12.5233 24.8089 10.3488 24.7895 8.18392C24.7701 6.6695 25.1778 5.34923 26.3622 4.32019C27.197 3.60181 28.1581 3.23291 29.2454 3.23291C32.614 3.22321 35.9729 3.22321 39.3416 3.22321C45.0013 3.22321 50.6706 3.23291 56.3303 3.22321C57.8156 3.22321 59.0485 3.7086 60.0193 4.83471C60.7959 5.73754 61.0872 6.7957 61.0872 7.98006C61.0775 10.2614 61.0872 12.5428 61.0872 14.8241C61.0775 14.9503 61.0872 15.0959 61.1066 15.2998ZM30.8763 15.2998C31.1093 15.2998 31.284 15.2998 31.4588 15.2998C34.1382 15.2998 36.8272 15.2998 39.5066 15.2998C44.5159 15.2998 49.5348 15.2998 54.5441 15.3095C54.9421 15.3095 55.0295 15.1833 55.0295 14.8047C55.0101 13.1058 55.0295 11.4069 55.0295 9.70806C55.0295 9.57215 55.0101 9.43624 54.9906 9.29062C46.9331 9.29062 38.9241 9.29062 30.8763 9.29062C30.8763 11.2904 30.8763 13.2514 30.8763 15.2998Z" fill="#FEFEFE"/>
<mask id="mask0_9_6017" style="mask-type:alpha" maskUnits="userSpaceOnUse" x="19" y="3" width="48" height="73">
<path d="M61.1066 15.2998C63.6209 15.2998 63.8733 15.2998 66.378 15.2998C66.378 35.4727 66.378 55.5777 66.378 75.7215C49.2824 75.7215 36.3515 75.7215 19.1978 75.7215C19.1978 55.5874 19.1978 35.4824 19.1978 15.3192C21.7024 15.3192 22.246 15.3192 24.7992 15.3192C24.7992 15.0668 24.7992 14.8726 24.7992 14.6882C24.7992 12.5233 24.8089 10.3488 24.7895 8.18392C24.7701 6.6695 25.1778 5.34923 26.3622 4.32019C27.197 3.60181 28.1581 3.23291 29.2454 3.23291C32.614 3.22321 35.9729 3.22321 39.3416 3.22321C45.0013 3.22321 50.6706 3.23291 56.3303 3.22321C57.8156 3.22321 59.0485 3.7086 60.0193 4.83471C60.7959 5.73754 61.0872 6.7957 61.0872 7.98006C61.0775 10.2614 61.0872 12.5428 61.0872 14.8241C61.0775 14.9503 61.0872 15.0959 61.1066 15.2998ZM30.8763 15.2998C31.1093 15.2998 31.284 15.2998 31.4588 15.2998C34.1382 15.2998 36.8272 15.2998 39.5066 15.2998C44.5159 15.2998 49.5348 15.2998 54.5441 15.3095C54.9421 15.3095 55.0295 15.1833 55.0295 14.8047C55.0101 13.1058 55.0295 11.4069 55.0295 9.70806C55.0295 9.57215 55.0101 9.43624 54.9906 9.29062C46.9331 9.29062 38.9241 9.29062 30.8763 9.29062C30.8763 11.2904 30.8763 13.2514 30.8763 15.2998Z" fill="#F7F9FC"/>
</mask>
<g mask="url(#mask0_9_6017)">
<path d="M62.0748 0.485565H22.8259V15.3192H62.0748V0.485565Z" fill="#0AC5A8"/>
</g>
<path d="M85.25 25.959C85.25 21.9594 83.0657 18.979 79.1826 16.8142C76.7945 15.4842 74.086 15.2318 71.3095 15.2901C70.8824 15.2998 70.9406 15.523 70.9406 15.756C70.9406 22.7457 70.9406 29.7257 70.9406 36.7153C70.9406 48.9958 70.9406 61.2665 70.9309 73.547C70.9309 74.2556 70.9309 74.9643 70.9309 75.7312C72.6783 75.7895 74.3384 75.7992 75.9693 75.4109C81.4834 74.11 85.2403 70.0036 85.2403 65.1594C85.2597 52.1023 85.25 39.0258 85.25 25.959Z" fill="#0AC5A8"/>
<path d="M47.3892 49.986C47.3892 51.2383 47.3892 52.4226 47.3892 53.6167C47.3892 54.9661 47.3892 56.3155 47.3892 57.6552C47.3892 58.4609 46.9815 58.8881 46.1855 58.8881C43.9915 58.8978 41.7975 58.8978 39.6035 58.8881C38.8755 58.8881 38.4677 58.4318 38.4677 57.6649C38.4677 55.2573 38.4677 52.8498 38.4677 50.4422C38.4677 50.3063 38.4677 50.1607 38.4677 49.986C38.2833 49.986 38.1474 49.986 38.0017 49.986C35.633 49.986 33.2546 49.986 30.8859 49.986C29.9442 49.986 29.5559 49.6074 29.5559 48.6657C29.5559 46.5785 29.5559 44.4913 29.5559 42.4041C29.5559 41.4527 29.9345 41.0741 30.8762 41.0741C33.2352 41.0741 35.5942 41.0741 37.9532 41.0741C38.1085 41.0741 38.2542 41.0741 38.458 41.0741C38.458 40.9188 38.458 40.7926 38.458 40.6664C38.458 38.2589 38.458 35.8513 38.458 33.4438C38.458 32.5506 38.856 32.1623 39.7492 32.1623C41.8364 32.1623 43.9235 32.1623 46.0107 32.1623C46.9912 32.1623 47.3698 32.5312 47.3698 33.5311C47.3795 35.9193 47.3698 38.2977 47.3698 40.6858C47.3698 40.8023 47.3698 40.9188 47.3698 41.0839C47.5252 41.0839 47.6611 41.0839 47.7873 41.0839C50.1948 41.0839 52.6024 41.0838 55.0099 41.0936C55.8933 41.0936 56.2719 41.4819 56.2719 42.3653C56.2719 44.4622 56.2719 46.5591 56.2719 48.656C56.2719 49.6171 55.903 49.986 54.9614 49.986C52.5635 49.986 50.1657 49.986 47.7776 49.9957C47.6805 49.986 47.564 49.986 47.3892 49.986Z" fill="#0AC5A8"/>
</g>
<defs>
<clipPath id="clip0_9_6017">
<rect width="84.6429" height="75.2845" fill="white" transform="translate(0.607178 0.485565)"/>
</clipPath>
</defs>
</svg>
