<svg width="104" height="74" viewBox="0 0 104 74" fill="none" xmlns="http://www.w3.org/2000/svg">
<path d="M16.9 11.3352H9.1C6.93875 11.3352 5.2 13.0813 5.2 15.2517V32.2234H1.3C0.585 32.2234 0 32.8109 0 33.529V41.3621C0 42.0801 0.585 42.6676 1.3 42.6676H5.2V59.6393C5.2 61.8097 6.93875 63.5558 9.1 63.5558H16.9C19.0612 63.5558 20.8 61.8097 20.8 59.6393V15.2517C20.8 13.0813 19.0612 11.3352 16.9 11.3352ZM102.7 32.2234H98.8V15.2517C98.8 13.0813 97.0612 11.3352 94.9 11.3352H87.1C84.9387 11.3352 83.2 13.0813 83.2 15.2517V59.6393C83.2 61.8097 84.9387 63.5558 87.1 63.5558H94.9C97.0612 63.5558 98.8 61.8097 98.8 59.6393V42.6676H102.7C103.415 42.6676 104 42.0801 104 41.3621V33.529C104 32.8109 103.415 32.2234 102.7 32.2234ZM74.1 0.891052H66.3C64.1387 0.891052 62.4 2.63718 62.4 4.8076V32.2234H41.6V4.8076C41.6 2.63718 39.8612 0.891052 37.7 0.891052H29.9C27.7387 0.891052 26 2.63718 26 4.8076V70.0834C26 72.2538 27.7387 74 29.9 74H37.7C39.8612 74 41.6 72.2538 41.6 70.0834V42.6676H62.4V70.0834C62.4 72.2538 64.1387 74 66.3 74H74.1C76.2612 74 78 72.2538 78 70.0834V4.8076C78 2.63718 76.2612 0.891052 74.1 0.891052Z" fill="#0AC5A8"/>
</svg>
