<svg width="66" height="90" viewBox="0 0 66 90" fill="none" xmlns="http://www.w3.org/2000/svg">
<g clip-path="url(#clip0_9_5954)">
<path d="M65.4473 28.0174L65.2445 70.1281L65.2107 78.2731C65.1769 84.7452 59.0259 89.9668 51.4555 89.933L13.637 89.764C6.08342 89.7133 -0.0337794 84.441 1.72997e-05 77.9521L0.236594 27.6964C0.253492 22.4579 4.30909 18.0305 9.85175 16.5603L9.86865 13.8566V12.4709L55.9504 12.6906L55.9335 16.78C61.4593 18.3178 65.4642 22.762 65.4473 28.0174Z" fill="#0AC5A8"/>
<path d="M59.3807 1.87572V2.24748L59.3469 6.64105L59.3131 10.9501V11.474C59.3131 12.2851 58.6372 12.9441 57.8261 12.9441H57.4712L55.2406 12.9272L52.7904 12.9103L50.5598 12.8934L48.1095 12.8765L45.8452 12.8427L43.3949 12.8258L41.1643 12.809L38.6972 12.7921L36.4497 12.7752L33.9994 12.7583L31.7688 12.7245L29.3186 12.7076L27.088 12.6907L24.6208 12.6738L22.3733 12.6569L19.94 12.64L17.7094 12.6231L15.2591 12.6062L13.0117 12.5893L10.5614 12.5724L8.31391 12.5555H7.95905C7.14793 12.5555 6.48889 11.8795 6.48889 11.0684V11.0515V10.6798L6.55648 1.99401V1.47016C6.55648 0.659036 7.23242 0 8.06044 0H8.4153L13.113 0.0337967L17.8108 0.0675934L20.0583 0.0844918L22.5085 0.10139L24.7391 0.118288L29.42 0.168984L31.8702 0.185882L34.1008 0.20278L36.5511 0.219679L38.7816 0.236577L41.2319 0.253475L43.4625 0.270374L45.9128 0.287272L48.1433 0.30417L50.6274 0.337967L52.858 0.354865L55.3082 0.371764L57.5557 0.388662H57.9106C58.7386 0.40556 59.3807 1.0646 59.3807 1.87572Z" fill="#0AC5A8"/>
<path d="M59.3807 2.26439L59.3469 6.64107L59.3131 10.9501L57.3022 10.9333L54.6323 10.9164L52.182 10.8995H49.4952L47.0449 10.8826L44.375 10.8657L41.9247 10.8488H39.2379L36.7876 10.8319L34.1008 10.815L31.6674 10.7981H28.9806L26.5303 10.7812L23.8435 10.7643L21.3932 10.7474H18.7233L16.273 10.7305L13.5862 10.7136L11.1359 10.6967H8.466L6.48889 10.6798L6.55648 1.99402L11.2542 2.01092L16.3744 2.04471L18.8247 2.06161L21.5115 2.07851H23.9618L29.082 2.11231L31.7688 2.12921H34.2191L36.9059 2.1461L39.3393 2.163L42.0261 2.1799H44.4764L47.1632 2.1968L49.5966 2.2137L52.2834 2.2306H54.7337L57.4205 2.24749L59.3807 2.26439Z" fill="#0AC5A8"/>
<path d="M65.3976 36.9086L0.18689 36.6002L0.0501549 65.5133L65.2609 65.8217L65.3976 36.9086Z" fill="#F7F9FC"/>
<path d="M65.4092 36.9085L0.198486 36.6002L0.173881 41.8049L65.3846 42.1132L65.4092 36.9085Z" fill="#FBFCF7"/>
<path d="M25.6178 48.2257L21.4101 48.2088L21.427 43.9842L15.6308 43.9673L15.6139 48.175L11.4062 48.1581L11.3724 53.9373L15.5801 53.9542L15.5632 58.1788L21.3594 58.1957L21.3763 53.988L25.584 54.0049L25.6178 48.2257Z" fill="#0AC5A8"/>
<path d="M54.2099 49.6283L33.3573 49.5269C32.7996 49.5269 32.3434 49.0706 32.3434 48.513V48.0398C32.3434 47.4822 32.7996 47.0259 33.3573 47.0259L54.2099 47.1273C54.7675 47.1273 55.2238 47.5836 55.2238 48.1412V48.6144C55.2238 49.172 54.7675 49.6283 54.2099 49.6283Z" fill="#0AC5A8"/>
<path opacity="0.5" d="M54.1929 55.8299L33.3403 55.7286C32.7827 55.7286 32.3264 55.2723 32.3264 54.7147V54.2415C32.3264 53.6839 32.7827 53.2276 33.3403 53.2276L54.1929 53.329C54.7505 53.329 55.2068 53.7852 55.2068 54.3429V54.816C55.2068 55.3737 54.7505 55.8299 54.1929 55.8299Z" fill="#0AC5A8"/>
<path opacity="0.08" d="M6.48889 1.87573V2.24749L6.52269 6.64106L6.55648 10.9332V11.4571C6.55648 12.2682 7.23242 12.9272 8.04354 12.9272H8.39841L10.6459 12.9104L13.0961 12.8935L15.3267 12.8766L17.777 12.8597L20.0076 12.8428L22.4578 12.8259L24.6884 12.809L27.1387 12.7921L29.3862 12.7752L31.8364 12.7583L34.067 12.7414L36.5173 12.7245L38.7478 12.7076L41.1981 12.6907L43.4456 12.6738L45.8959 12.6569L48.1264 12.64L50.5767 12.6231L52.8073 12.6062L55.2575 12.5893L57.505 12.5724H57.8599C58.671 12.5724 59.33 11.8965 59.33 11.0853V11.0684V10.6967C33.1883 11.8289 7.95905 0.388672 7.95905 0.388672C7.14793 0.40557 6.48889 1.06461 6.48889 1.87573Z" fill="#0AC5A8"/>
</g>
<defs>
<clipPath id="clip0_9_5954">
<rect width="65.4473" height="89.933" fill="white"/>
</clipPath>
</defs>
</svg>
