<svg width="72" height="102" viewBox="0 0 72 102" fill="none" xmlns="http://www.w3.org/2000/svg">
<g clip-path="url(#clip0_9_5974)">
<path d="M71.9036 96.4285C71.9036 99.0514 69.7807 101.183 67.1578 101.183L5.78653 101.253C3.69871 101.253 1.9267 99.9111 1.28632 98.0426C1.11964 97.5601 1.03192 97.0513 1.03192 96.5162L0.935425 8.01216C0.935425 5.38923 3.05833 3.25756 5.68126 3.25756L62.0347 3.19615L67.0525 3.18738C69.6754 3.18738 71.8071 5.31028 71.8071 7.93321L71.9036 96.4285Z" fill="#0AC5A8"/>
<path d="M65.5436 95.9197L7.39182 95.9811C5.97947 95.9811 4.83907 94.8407 4.83907 93.4283L4.75134 11.0649C4.75134 9.65255 5.89175 8.51215 7.30409 8.51215L65.4471 8.45074C66.8595 8.45074 67.9999 9.59115 67.9999 11.0035L68.0876 93.3669C68.0964 94.7705 66.956 95.9197 65.5436 95.9197Z" fill="#FEFEFE"/>
<path d="M57.3766 15.2405L14.9624 15.2932C13.5588 15.2932 12.4097 14.1528 12.4097 12.7492L12.4009 5.6787C12.4009 4.27513 13.5413 3.12595 14.9449 3.12595L57.3679 3.08209C58.7714 3.08209 59.9206 4.2225 59.9206 5.62607L59.9294 12.6966C59.9206 14.1001 58.7802 15.2405 57.3766 15.2405ZM14.9449 4.42426C14.2606 4.42426 13.6992 4.98569 13.6992 5.66993L13.708 12.7404C13.708 13.4247 14.2694 13.9861 14.9536 13.9861L57.3766 13.9422C58.0609 13.9422 58.6223 13.3808 58.6223 12.6966L58.6135 5.62607C58.6135 4.94183 58.0521 4.3804 57.3679 4.3804L14.9449 4.42426Z" fill="#0AC5A8"/>
<path d="M56.1747 6.14364L16.5676 6.1875C16.129 6.1875 15.7781 5.83661 15.7781 5.39799V1.56448C15.7781 1.12586 16.129 0.774971 16.5676 0.774971L56.1659 0.73111C56.6045 0.73111 56.9554 1.082 56.9554 1.52062V5.35413C56.9642 5.79275 56.6133 6.14364 56.1747 6.14364Z" fill="#0AC5A8"/>
<path d="M16.6028 6.18745L56.1397 6.14359C56.5958 6.14359 56.9643 5.77515 56.9643 5.31899V3.44171L15.7694 3.48557V5.36285C15.7694 5.81901 16.1466 6.18745 16.6028 6.18745Z" fill="#0AC5A8"/>
<path d="M30.4981 86.6561L27.0769 65.9534L24.3049 74.9626L16.3747 74.9714C15.8922 74.9714 15.5062 74.5854 15.5062 74.1029C15.5062 73.6204 15.8922 73.2344 16.3747 73.2344L23.0329 73.2257L27.6033 58.3917L31.0245 79.147L35.4633 64.892L37.823 71.6467L43.1391 58.7601L48.306 79.1996L50.2534 72.6993L55.9555 72.6906C56.4379 72.6906 56.8239 73.0765 56.8239 73.559C56.8239 74.0415 56.4379 74.4275 55.9555 74.4275L51.543 74.4363L48.1656 85.7087L42.7443 64.2691L37.6827 76.5241L35.551 70.4273L30.4981 86.6561Z" fill="#0AC5A8"/>
<path d="M24.6208 46.742L13.4711 46.7508C11.6728 46.7508 10.1991 45.2858 10.1991 43.4875L10.1815 27.899C10.1815 26.1007 11.6465 24.6269 13.4448 24.6269L24.5945 24.6182C26.3928 24.6182 27.8665 26.0831 27.8665 27.8815L27.8841 43.4699C27.8841 45.2682 26.4191 46.7332 24.6208 46.742ZM13.4361 25.5744C12.1553 25.5744 11.1202 26.6183 11.1202 27.899L11.1377 43.4875C11.1377 44.7682 12.1816 45.8033 13.4624 45.8033L24.612 45.7946C25.8928 45.7946 26.9279 44.7507 26.9279 43.4699L26.9104 27.8815C26.9104 26.6007 25.8665 25.5656 24.5857 25.5656L13.4361 25.5744Z" fill="#0AC5A8"/>
<path d="M19.0326 43.7506C24.3048 43.7418 25.9452 40.6978 25.9452 40.6978C25.7084 40.3996 25.4101 40.1364 25.0066 39.8733C23.6206 38.9697 22.5065 38.5837 22.0416 38.1977C21.5679 37.8205 21.3047 37.2679 21.3047 37.2679L21.0152 37.4433C21.0152 37.4433 20.8397 36.838 20.9362 35.9169C20.9362 35.9169 21.3485 35.8117 21.6556 34.4169C22.1468 34.5134 22.7258 33.2677 22.4539 32.8115C22.2784 32.5133 22.0679 32.5396 21.9187 32.6098C22.0679 31.9869 22.7433 28.5394 19.0239 28.5394C15.3044 28.5394 15.9799 31.9869 16.1378 32.6098C15.9886 32.5396 15.7781 32.5133 15.6027 32.8115C15.3307 33.2677 15.9185 34.5134 16.4097 34.4169C16.7168 35.8117 17.1378 35.9082 17.1378 35.9082C17.2431 36.8205 17.0589 37.4345 17.0589 37.4345L16.7694 37.2591C16.7694 37.2591 16.5062 37.803 16.0325 38.189C15.5588 38.5749 14.4535 38.9697 13.0675 39.8733C12.6639 40.1364 12.3569 40.3996 12.1288 40.6978C12.12 40.7154 13.7692 43.7594 19.0326 43.7506Z" fill="#0AC5A8"/>
<path d="M53.7537 29.5921L32.2878 29.6184C31.8843 29.6184 31.5597 29.2939 31.5597 28.8903V28.7675C31.5597 28.364 31.8843 28.0394 32.2878 28.0394L53.7537 28.0131C54.1572 28.0131 54.4818 28.3377 54.4818 28.7412V28.864C54.4818 29.2675 54.1484 29.5921 53.7537 29.5921Z" fill="#0AC5A8"/>
<path d="M45.8586 33.68L32.2878 33.6975C31.8843 33.6975 31.5597 33.373 31.5597 32.9694V32.8466C31.5597 32.4431 31.8843 32.1185 32.2878 32.1185L45.8586 32.101C46.2621 32.101 46.5867 32.4255 46.5867 32.8291V32.9519C46.5867 33.3554 46.2621 33.68 45.8586 33.68Z" fill="#0AC5A8"/>
<path opacity="0.6" d="M61.1574 38.5399L32.2965 38.575C31.8929 38.575 31.5684 38.2504 31.5684 37.8469V37.724C31.5684 37.3205 31.8929 36.9959 32.2965 36.9959L61.1574 36.9608C61.561 36.9608 61.8855 37.2854 61.8855 37.6889V37.8118C61.8768 38.2153 61.5522 38.5399 61.1574 38.5399Z" fill="#0AC5A8"/>
<path opacity="0.6" d="M60.5347 52.1984L12.3921 52.251C11.9798 52.251 11.6377 51.9177 11.6377 51.4966V51.4264C11.6377 51.0141 11.971 50.672 12.3921 50.672L60.5347 50.6194C60.947 50.6194 61.2891 50.9527 61.2891 51.3738V51.444C61.2891 51.865 60.947 52.1984 60.5347 52.1984Z" fill="#0AC5A8"/>
<path opacity="0.6" d="M61.1574 43.312L32.2965 43.3471C31.8929 43.3471 31.5684 43.0225 31.5684 42.619V42.4962C31.5684 42.0926 31.8929 41.7681 32.2965 41.7681L61.1574 41.733C61.561 41.733 61.8855 42.0575 61.8855 42.4611V42.5839C61.8855 42.9874 61.561 43.312 61.1574 43.312Z" fill="#0AC5A8"/>
</g>
<defs>
<clipPath id="clip0_9_5974">
<rect width="70.9682" height="100.513" fill="white" transform="translate(0.935425 0.73111)"/>
</clipPath>
</defs>
</svg>
